<svg xmlns="http://www.w3.org/2000/svg" viewBox="0 0 64 64" id="dta-file">
  <path fill="#ededed" d="M39.124 2.5H14a4 4 0 0 0-4 4v50a4 4 0 0 0 4 4h36a4 4 0 0 0 4-4V17.376Z"></path>
  <path fill="#c6c6c6" d="m53.707 17.083-14.29-14.29a1 1 0 0 0-1.707.707v11.29a4 4 0 0 0 4 4H53a1 1 0 0 0 .707-1.707Z"></path>
  <path fill="#930556" d="M53 43.393H30.086l-2.4-2.745a2 2 0 0 0-1.505-.683H11a2 2 0 0 0-2 2V56.5a5.006 5.006 0 0 0 5 5h36a5.006 5.006 0 0 0 5-5V45.393a2 2 0 0 0-2-2Z"></path>
  <path fill="#c6c6c6" d="M16.633 10.106v5.779h14.582v-5.779zm3.457 1.937h-2.357v-1.018h2.357zm-3.457 6.338v5.779h14.582v-5.779zm3.457 1.937h-2.357V19.3h2.357zm-3.457 6.339v5.778h14.582v-5.778zm3.457 1.936h-2.357v-1.018h2.357z"></path>
  <path fill="#fff" d="M25.175 57.293h-2.943v-8.928h2.918a4.8 4.8 0 0 1 1.836.318 3.3 3.3 0 0 1 1.274.906A3.744 3.744 0 0 1 29 51a6.6 6.6 0 0 1 .239 1.842 6.49 6.49 0 0 1-.251 1.89 3.5 3.5 0 0 1-.789 1.4 3.844 3.844 0 0 1-3.024 1.161zM25.152 50h-1.011v5.664h.987a2.342 2.342 0 0 0 1.09-.224 1.715 1.715 0 0 0 .675-.618 2.559 2.559 0 0 0 .343-.907 5.97 5.97 0 0 0 .1-1.1 4.932 4.932 0 0 0-.138-1.24 2.48 2.48 0 0 0-.4-.877A1.918 1.918 0 0 0 25.152 50zm8.565 7.293h-1.908V50h-2.256v-1.635h6.431V50h-2.267zm6.468-1.873h-2.533l-.515 1.873h-1.92l2.58-8.928h2.256l2.547 8.928h-1.936zm-2.1-1.631h1.68l-.817-3.168z"></path>
</svg>
