<?xml version="1.0" standalone="no"?>
<!DOCTYPE svg PUBLIC "-//W3C//DTD SVG 20010904//EN"
 "http://www.w3.org/TR/2001/REC-SVG-20010904/DTD/svg10.dtd">
<svg version="1.0" xmlns="http://www.w3.org/2000/svg"
 width="240.000000pt" height="240.000000pt" viewBox="0 0 240.000000 240.000000"
 preserveAspectRatio="xMidYMid meet">

<g transform="translate(0.000000,240.000000) scale(0.100000,-0.100000)"
fill="#000000" stroke="none">
<path d="M1040 2276 c-471 -73 -840 -434 -915 -898 -57 -351 54 -696 306 -947
504 -504 1343 -394 1707 224 191 324 193 754 5 1080 -128 223 -302 375 -543
475 -156 65 -389 92 -560 66z m229 -478 c36 -24 85 -57 109 -75 43 -32 46 -33
148 -33 l104 0 0 -91 0 -91 49 -56 c89 -103 152 -195 202 -295 27 -54 49 -104
49 -111 0 -6 -78 -50 -173 -98 l-174 -86 -23 80 c-35 121 -114 232 -252 354
-110 97 -104 96 -185 31 -177 -143 -258 -263 -309 -454 -2 -8 -65 19 -171 73
-92 47 -171 89 -175 92 -11 10 73 179 130 263 27 41 75 102 106 135 l55 61 3
94 3 94 104 3 c103 3 105 3 155 40 74 55 160 110 170 111 5 1 39 -18 75 -41z
m7 -702 c75 -69 131 -152 145 -215 9 -40 7 -43 -107 -220 l-116 -181 -38 58
c-113 170 -190 298 -190 315 0 69 82 196 170 266 29 23 55 41 60 41 4 0 38
-29 76 -64z"/>
</g>
</svg>
